<svg width="305" height="305" xmlns="http://www.w3.org/2000/svg" xmlns:xlink="http://www.w3.org/1999/xlink" xml:space="preserve" overflow="hidden"><defs><clipPath id="clip0"><rect x="487" y="307" width="305" height="305"/></clipPath></defs><g clip-path="url(#clip0)" transform="translate(-487 -307)"><path d="M719.88 351.46 728.458 351.46 728.458 332.417 550.637 332.417 550.637 351.479 558.897 351.479C562.392 386.723 582.726 438.166 612.244 459.44 582.713 480.726 562.074 532.154 558.897 567.4L550.637 567.4 550.637 586.463 728.458 586.463 728.458 567.4 719.88 567.4C716.703 532.154 696.052 480.713 666.534 459.44 696.068 438.147 716.703 386.703 719.88 351.46ZM700.722 351.46C698.967 365.641 695.368 379.532 690.016 392.781L588.984 392.781C583.631 379.526 579.969 365.65 578.084 351.479ZM623.379 474.887C624.623 473.991 625.754 472.947 626.747 471.779L633.241 480.091 633.241 535.75 601.62 567.372 578.046 567.372C581.417 535.75 600.126 491.639 623.379 474.887ZM700.726 567.372 677.571 567.372 645.949 535.75 645.949 479.865 652.167 471.922C653.125 473.028 654.207 474.019 655.392 474.877 678.648 491.639 697.358 535.75 700.726 567.372Z" fill="#199DC3"/></g></svg>