<svg width="84" height="83" xmlns="http://www.w3.org/2000/svg" xmlns:xlink="http://www.w3.org/1999/xlink" xml:space="preserve" overflow="hidden"><defs><clipPath id="clip0"><rect x="408" y="127" width="84" height="83"/></clipPath></defs><g clip-path="url(#clip0)" transform="translate(-408 -127)"><path d="M68.3021 56.1616C68.2077 53.6465 67.0414 51.292 65.0979 49.6928 63.103 48.0594 60.9076 46.6874 58.5651 45.6102 57.187 44.9497 55.6532 44.3064 53.9707 43.6692 55.7371 40.2585 60.1179 30.2803 55.3394 23.0541L55.3394 22.4792 56.204 22.4792C57.159 22.4792 57.9331 21.705 57.9331 20.75 57.9331 19.795 57.159 19.0208 56.204 19.0208L55.3394 19.0208C55.0383 14.2463 52.2918 9.96631 48.0769 7.70344L46.6936 13.1762C46.596 13.5715 46.2359 13.8452 45.829 13.8333L45.6215 13.8333C45.1541 13.7355 44.8544 13.2774 44.9522 12.8101 44.9522 12.8099 44.9523 12.8098 44.9523 12.8097 44.9523 12.7932 44.9601 12.7777 44.9644 12.7612L46.6071 6.28552C46.3184 5.13463 45.2855 4.32641 44.0989 4.32292L38.9114 4.32292C37.7252 4.32681 36.6928 5.13494 36.4041 6.28552L38.0469 12.7612C38.1721 13.2212 37.9013 13.6958 37.4416 13.8221L37.3898 13.8333 37.1823 13.8333C36.7753 13.8452 36.4152 13.5715 36.3177 13.1762L34.9776 7.70344C30.7627 9.96631 28.0161 14.2463 27.7151 19.0208L26.8073 19.0208C25.8523 19.0208 25.0781 19.795 25.0781 20.75 25.0781 21.705 25.8523 22.4792 26.8073 22.4792L27.6719 22.4792 27.6719 23.0558C22.8898 30.2881 27.2828 40.2757 29.0465 43.6779L26.9396 44.5425 24.8594 45.4243C22.3624 46.5319 20.0244 47.9677 17.9072 49.6937 15.9542 51.3011 14.7853 53.6699 14.6979 56.1979L14.7048 71.3886 15.4743 71.9013C17.1585 73.0253 19.9347 73.9193 23.342 74.5945L23.342 69.1667 39.7691 69.1667 39.7691 76.1162C40.4279 76.1266 41.0876 76.1317 41.7481 76.1317 42.2418 76.1317 42.7346 76.1257 43.2274 76.1196L43.2274 69.1667 59.6545 69.1667 59.6545 74.6611C63.1993 73.9694 66.0274 73.0314 67.6087 71.8469L68.3004 71.3281ZM31.125 28.5312 31.125 28.418C33.8052 28.0722 40.9709 26.7753 43.4185 22.4792L43.9857 22.4792C46.9287 24.101 49.5905 26.1875 51.8681 28.6583 51.6893 34.3855 46.9016 38.8833 41.1744 38.7045 35.6494 38.5321 31.2298 34.058 31.125 28.5312ZM39.7708 65.7083 23.6187 65.7083 26.3101 48.5342 33.6254 45.5385C33.6902 45.5117 33.749 45.4745 33.8121 45.4451L39.7752 59.6562ZM41.5 45.8229C39.2121 45.8444 36.9338 45.5239 34.7407 44.8719 35.7354 44.0521 36.3102 42.8296 36.3073 41.5406L36.3073 41.3452C39.6336 42.7044 43.3603 42.7044 46.6866 41.3452L46.6866 41.5372C46.6835 42.8308 47.2619 44.0574 48.2619 44.8779 46.0671 45.5256 43.7883 45.844 41.5 45.8229ZM43.2335 65.7083 43.2335 59.6562 49.1948 45.4511C49.2527 45.4779 49.3046 45.5117 49.3677 45.5376L56.7694 48.6112 59.3969 65.7083Z" fill="#199DC3" transform="matrix(1.01205 0 0 1 408 127)"/></g></svg>