<svg width="84" height="83" xmlns="http://www.w3.org/2000/svg" xmlns:xlink="http://www.w3.org/1999/xlink" xml:space="preserve" overflow="hidden"><defs><clipPath id="clip0"><rect x="669" y="14" width="84" height="83"/></clipPath></defs><g clip-path="url(#clip0)" transform="translate(-669 -14)"><path d="M26.9612 44.3773C23.4029 45.5773 20.0684 47.3595 17.0937 49.6513 15.0737 51.2289 13.8753 53.6352 13.8333 56.1979L13.8333 71.3886 14.6028 71.9022C16.3994 73.0997 19.5041 74.0403 23.3438 74.7294L23.3438 69.1667 39.7708 69.1667 39.7708 76.124C40.4262 76.1337 41.0824 76.1389 41.7395 76.1395 42.2366 76.1395 42.7329 76.1335 43.2292 76.1283L43.2292 69.1667 59.6562 69.1667 59.6562 74.7916C63.642 74.0861 66.7942 73.1048 68.475 71.8469L69.1667 71.3281 69.1667 56.1616C69.1207 53.6234 67.9356 51.2403 65.9392 49.672 62.9664 47.3787 59.6341 45.594 56.0777 44.3903L50.6871 42.2288C50.3613 42.0975 50.1474 41.7821 50.1458 41.4308L50.1458 39.3143C53.4237 36.695 55.3326 32.7272 55.3333 28.5312L55.3333 22.4792 56.1979 22.4792C57.1529 22.4792 57.9271 21.705 57.9271 20.75 57.9271 19.795 57.1529 19.0208 56.1979 19.0208L55.3333 19.0208C55.0323 14.2463 52.2858 9.96631 48.0708 7.70344L46.6875 13.1762C46.59 13.5715 46.2299 13.8452 45.8229 13.8333L45.6154 13.8333C45.148 13.7355 44.8484 13.2774 44.9461 12.8101 44.9461 12.8099 44.9462 12.8098 44.9462 12.8097 44.9462 12.7932 44.954 12.7777 44.9583 12.7612L46.601 6.28552C46.3129 5.13681 45.2832 4.32917 44.0989 4.32292L38.9114 4.32292C37.7252 4.32681 36.6928 5.13494 36.4041 6.28552L38.0469 12.7612C38.1721 13.2212 37.9013 13.6958 37.4416 13.8221L37.3898 13.8333 37.1823 13.8333C36.7753 13.8452 36.4152 13.5715 36.3177 13.1762L34.9776 7.70344C30.7627 9.96631 28.0161 14.2463 27.7151 19.0208L26.8073 19.0208C25.8523 19.0208 25.0781 19.795 25.0781 20.75 25.0781 21.705 25.8523 22.4792 26.8073 22.4792L27.6719 22.4792 27.6719 28.5312C27.6731 32.724 29.5794 36.689 32.8533 39.3083L32.8533 41.4308C32.8548 41.7802 32.6445 42.0956 32.3216 42.2288ZM31.125 28.5312 31.125 22.4792 51.875 22.4792 51.875 28.5312C51.875 34.2612 47.2299 38.9062 41.5 38.9062 35.7701 38.9062 31.125 34.2612 31.125 28.5312ZM39.7708 65.7083 23.6187 65.7083 26.3317 48.3968 33.6262 45.4304C33.6781 45.4088 33.7239 45.3794 33.7749 45.356L39.7752 59.6562ZM41.5 45.8229C39.176 45.8458 36.8621 45.5131 34.6387 44.8364 35.6941 44.0219 36.3124 42.7641 36.3125 41.4308L36.3125 41.3444C39.6388 42.7035 43.3655 42.7035 46.6918 41.3444L46.6918 41.4308C46.6904 42.7702 47.3143 44.0336 48.3786 44.8468 46.1483 45.5185 43.8291 45.8476 41.5 45.8229ZM43.2292 65.7083 43.2292 59.6562 49.2276 45.3604C49.2787 45.3837 49.3253 45.414 49.3781 45.4356L56.727 48.3752 59.3969 65.7083Z" fill="#199DC3" transform="matrix(1.01205 0 0 1 669 14)"/></g></svg>